<svg id="svg39" xmlns="http://www.w3.org/2000/svg" viewBox="0 0 541.87 226.28"><defs><style>.cls-1{fill:#d1d5db;}.cls-2{fill:#d7dae0;}.cls-3{fill:#e2e4e8;}.cls-4{fill:#f2f3f5;}.cls-5{fill:#d6dadf;}</style></defs><title>amazons3</title><g id="Layer_2" data-name="Layer 2"><g id="Layer_1-2" data-name="Layer 1-2"><g id="S3"><path id="path8" class="cls-1" d="M255.18,142.45c0-6-2.16-10.16-8.88-10.16-5.92,0-9.44,3.2-9.44,9.28,0,16.08,27,6.48,27,27.36,0,13.2-9.68,17-17.76,17-13.36,0-17.28-6.88-17.28-19h7c0,6.4.4,13.28,10.72,13.28a9.63,9.63,0,0,0,9.93-9.3c0-.26,0-.52,0-.78,0-16.16-27-6.8-27-27.76,0-5.28,2.24-15.76,16.72-15.76,10.88,0,15.84,5.44,16,15.92Z"/><path id="path10" class="cls-1" d="M282.7,152.85h3.52c6,0,8.64-4.32,8.64-10,0-5.2-1.92-9.44-7.36-9.44-7.44,0-8.16,6.88-8.16,11h-7c0-9.68,4.56-16.32,15-16.32,11.84,0,14.56,8.4,14.56,14.72,0,5.68-2.88,10.72-8.8,12.16v.16c6.4,1.28,10.48,5.36,10.48,13.2,0,10.32-5.2,17.52-16.08,17.52-15.2,0-16.08-13.28-16.08-15.76v-.72h7c0,5.2,2.56,11.2,9,11.2,4.16,0,9-2.08,9-11.68,0-6.64-3.2-10.8-10.24-10.8h-3.6Z"/></g><g id="S3-2"><path id="path13" class="cls-2" d="M59.26,17.11C70.7,11.4,82.1,5.62,93.58,0c.1,19,0,38.08,0,57.12-11.18,2.48-22.22,5.6-33.4,8.07l1.54,1-2.34-.27c-.26-5.31,0-10.63-.14-15.94Q59.24,33.51,59.26,17.11Z"/><path id="path15" class="cls-3" d="M93.58,0q17.17,8.6,34.36,17.17V49.94c-.06,5.08,0,10.17,0,15.25l-.74.2c-11.17-2.81-22.33-5.7-33.56-8.27C93.57,38.08,93.68,19,93.58,0Z"/><path id="path17" class="cls-2" d="M0,46.71c5.08-2.48,10.09-5.12,15.21-7.54q-.06,73.77,0,147.54c-5.12-2.35-10.09-5-15.17-7.48Q0,113,0,46.71Z"/><path id="path19" class="cls-3" d="M15.21,39.17C29.86,42.92,44.61,46.25,59.27,50c.1,5.31-.12,10.63.14,15.94l2.34.27c10.62,1.72,21.13,4,31.76,5.61.12,4.29.1,8.57,0,12.86C82.13,86,70.7,87.39,59.29,89c0,16.09.06,32.19,0,48.28,11.38,1.77,22.84,3,34.26,4.44.23,4.23.08,8.47.07,12.71-11.46,1.93-22.88,4.08-34.29,6.26V176c-14.74,3.67-29.47,7-44.15,10.72Q15.26,112.95,15.21,39.17Z"/><path id="path21" class="cls-2" d="M127.92,49.94c14.7-3.65,29.43-7.17,44.15-10.72q-.07,71.66,0,143.3c0,1.36-.14,2.72-.26,4.08q-22-5.21-43.88-10.59c-.06-5.1,0-10.21,0-15.32-11.43-2.18-22.88-4.33-34.36-6.28,0-4.24.16-8.48-.07-12.71-11.42-1.41-22.88-2.67-34.26-4.44.11-16.09,0-32.19,0-48.28,11.46-1.59,22.89-3,34.32-4.35,0-4.29.07-8.57,0-12.86,9.61-1.37,19.11-3.52,28.72-5a24.11,24.11,0,0,0,4.94-1.36l.74-.2C127.89,60.1,127.86,55,127.92,49.94Z"/><path id="path23" class="cls-3" d="M172.08,39.22c5,2.57,10.12,5,15.15,7.61q-.07,66.19,0,132.38c-5.14,2.59-10.34,5.08-15.44,7.77v-.37c.12-1.36.22-2.72.26-4.08l0-143.31Z"/><path id="path25" class="cls-1" d="M60.21,65.19c11.19-2.47,22.22-5.59,33.4-8.07,11.23,2.57,22.39,5.46,33.56,8.27a24.11,24.11,0,0,1-4.94,1.36c-9.6,1.5-19.1,3.65-28.72,5-10.64-1.6-21.15-3.89-31.76-5.61C61.24,65.85,60.72,65.53,60.21,65.19Z"/><path id="path27" class="cls-3" d="M93.69,84.65c11.4,1.42,22.82,2.78,34.21,4.35v48.27q-17.13,2.49-34.34,4.38C93.72,122.64,93.47,103.64,93.69,84.65Z"/><path id="path29" class="cls-4" d="M59.29,160.67c11.4-2.18,22.83-4.33,34.29-6.26,11.47,2,22.92,4.1,34.36,6.28-11.45,2.82-22.87,5.83-34.37,8.47C82.11,166.43,70.7,163.55,59.29,160.67Z"/><path id="path31" class="cls-2" d="M59.26,176c.05-5.1,0-10.19,0-15.29,11.41,2.87,22.83,5.76,34.27,8.49.12,19,0,38.06,0,57.08-11.49-5.61-22.89-11.4-34.34-17.11q.08-16.6.07-33.17Z"/><path id="path33" class="cls-3" d="M93.56,169.17c11.5-2.64,22.92-5.65,34.37-8.47-.05,5.1-.07,10.21,0,15.32,0,11,0,22,0,33.07q-17.18,8.57-34.34,17.17C93.61,207.22,93.68,188.19,93.56,169.17Z"/></g><path id="Amazon" class="cls-5" d="M251.39,52.73c-9.24,0-19.45,3.58-21.68,15.28A1.66,1.66,0,0,0,231,70h.21l9.48,1.14a2.11,2.11,0,0,0,1.52-2A7.41,7.41,0,0,1,250,63.21a6.5,6.5,0,0,1,5.42,2.52,12.91,12.91,0,0,1,1.27,7.21v1.38a65.9,65.9,0,0,0-18.34,3.41A17,17,0,0,0,228,94c0,10.38,6.48,15.55,14.52,15.55a19,19,0,0,0,16.07-7.21,23.8,23.8,0,0,0,5.42,6.48,2,2,0,0,0,2.28-.27c2-1.79,5.42-5,7.45-6.69a1.91,1.91,0,0,0,0-2.71A13.72,13.72,0,0,1,270,89.93V74.87c0-6.48.54-12.65-4.17-17.21a21.69,21.69,0,0,0-14.44-4.93Zm127.35,0c-9.24,0-19.45,3.58-21.68,15.28a1.65,1.65,0,0,0,1.22,2h.19L368,71.13a2.11,2.11,0,0,0,1.65-2,7.42,7.42,0,0,1,7.83-5.93,6.5,6.5,0,0,1,5.42,2.52,13,13,0,0,1,1.1,7.22v1.38a65,65,0,0,0-18.21,3.41A17,17,0,0,0,355.44,94c0,10.38,6.48,15.55,14.52,15.55a19,19,0,0,0,16-7.21,23.62,23.62,0,0,0,5.42,6.48,2,2,0,0,0,2.28-.27c2-1.79,5.42-5,7.45-6.69a2,2,0,0,0,0-2.71,13.7,13.7,0,0,1-3.66-9.21V74.87c0-6.48.43-12.65-4.28-17.21a21.4,21.4,0,0,0-14.47-4.93Zm-71.64.51a13,13,0,0,0-12.79,9.43V56a1.92,1.92,0,0,0-1.79-1.79h-9a1.93,1.93,0,0,0-1.87,1.87v51.18a2,2,0,0,0,1.79,1.79h9.73a1.93,1.93,0,0,0,1.87-1.87V80.09c0-5.93-.3-14,6.69-14s5.93,8.35,5.93,14v27.1a2,2,0,0,0,1.79,1.87h9.73a1.93,1.93,0,0,0,1.87-1.87V80.09a31.26,31.26,0,0,1,.87-9.73A6.47,6.47,0,0,1,327.58,66a5.07,5.07,0,0,1,5.66,4.36,68.69,68.69,0,0,1,.27,9.73v27.1a2,2,0,0,0,1.79,1.87H345a1.93,1.93,0,0,0,1.87-1.87V74.7c0-5.42.54-11.73-2.52-16.07a14.17,14.17,0,0,0-24.39,4c-3-6.39-6.8-9.35-12.87-9.35Zm165.47,0c-14,0-21.87,12.36-21.87,28.29s7.72,28.56,21.87,28.56c13.55,0,22.22-12.44,22.22-28.07,0-16.09-7.88-28.78-22.41-28.78Zm55.49,0c-6.72,0-10.54,3.25-13.28,10.35v-7.8A1.87,1.87,0,0,0,513,54.41h-9a1.84,1.84,0,0,0-1.87,1.65v51.13a2,2,0,0,0,1.79,1.87h9.73a1.93,1.93,0,0,0,1.87-1.87V79.66a23.63,23.63,0,0,1,1.65-9.73,6.23,6.23,0,0,1,5.23-4.12c6.72,0,6.07,8.13,6.07,13.76v27.8a1.92,1.92,0,0,0,1.79,1.65H540a1.92,1.92,0,0,0,1.87-1.65V75.22c0-5,0-11.84-2.52-15.93A12.77,12.77,0,0,0,528,53.22Zm-116.81.87a1.79,1.79,0,0,0-1.79,1.79h0v7.34a1.78,1.78,0,0,0,1.68,1.87h16.77l-19,28.15a9.37,9.37,0,0,0-1.35,5v7.45a1.68,1.68,0,0,0,1.6,1.76,1.77,1.77,0,0,0,.68-.11,35.9,35.9,0,0,1,33.73,0,1.76,1.76,0,0,0,2.3-1,1.85,1.85,0,0,0,.13-.7V98a3.24,3.24,0,0,0-1.79-2.71A34.67,34.67,0,0,0,426,91.18l16.56-24.39A10.2,10.2,0,0,0,445,62.24V56a1.78,1.78,0,0,0-1.68-1.87h-32Zm61.29,9.73A6.21,6.21,0,0,1,479,68.77a48.3,48.3,0,0,1,1.38,13.55c0,6.48-.33,17.42-7.83,17.42S465,86.19,465,80s.33-16.26,7.37-16.26Zm-216,18.56v2.14a20.14,20.14,0,0,1-1.79,10.57,7.85,7.85,0,0,1-6.69,4.55c-3.74,0-5.93-3-5.93-7.34-.11-8.4,7.45-9.89,14.44-9.89Zm127.35,0v2.14a20.11,20.11,0,0,1-1.79,10.62,7.83,7.83,0,0,1-6.69,4.55c-3.74,0-5.93-3-5.93-7.34,0-8.48,7.37-10,14.36-10Z"/></g></g></svg>