<svg id="Shield" xmlns="http://www.w3.org/2000/svg" viewBox="0 0 374.3 448.7"><defs><style>.cls-1{fill:#d1d5db;}</style></defs><title>bitwarden-shield</title><path id="Identity" class="cls-1" d="M376.4,12.2a18,18,0,0,0-13.1-5.6H26.7a17.86,17.86,0,0,0-13.1,5.6A17.86,17.86,0,0,0,8,25.3V249.7a134.61,134.61,0,0,0,9.8,49.8,180.92,180.92,0,0,0,24.3,43.8,258.05,258.05,0,0,0,34.5,37.2,394,394,0,0,0,37,30.1c11.3,8,23.1,15.5,35.4,22.6s21,11.9,26.2,14.5,9.3,4.5,12.4,5.8a16.94,16.94,0,0,0,15.2,0c3.1-1.4,7.3-3.3,12.4-5.8s13.9-7.4,26.2-14.5,24.1-14.7,35.4-22.6a407.31,407.31,0,0,0,37-30.1,281.87,281.87,0,0,0,34.5-37.2,188.11,188.11,0,0,0,24.2-43.8,135,135,0,0,0,9.8-49.8V25.3A19.41,19.41,0,0,0,376.4,12.2ZM333,251.8C333,333,195,403,195,403V54.6H333Z" transform="translate(-8 -6.6)"/></svg>