<svg id="Layer1" xmlns="http://www.w3.org/2000/svg" viewBox="0 0 359.98 392.72"><defs><style>.cls-1{fill:#d1d5db;}.cls-2{fill:#fff;}</style></defs><title>bouncer</title><path class="cls-1" d="M129,653c-.11-1.65-.32-3.31-.32-5,0-34-.25-68,0-102,.4-46.15,21.66-79.55,62.59-100.59,1-.53,2-1.09,3.4-1.82C179.18,411,176.83,377.48,189,343.4c9.34-26.09,26.07-46.68,49-62.07,45.63-30.63,106.27-27.59,149.47,7.5C429.09,322.6,449,383.55,421.08,443c1.66.9,3.35,1.83,5.06,2.71,39.75,20.54,61.16,53,62.06,97.86.71,35.32.15,70.65.13,106A33.73,33.73,0,0,1,488,653Zm72.36-269.42C198.94,440,245.19,490.32,301.84,492.91c59.08,2.7,109.7-42.76,112.09-100.64,2.47-60.12-42.58-109.53-102.9-111.81C253.18,278.27,203.46,323.75,201.36,383.58Z" transform="translate(-128.58 -260.28)"/><path class="cls-2" d="M201.36,383.58c2.1-59.83,51.82-105.31,109.67-103.12,60.32,2.28,105.37,51.69,102.9,111.81-2.39,57.88-53,103.34-112.09,100.64C245.19,490.32,198.94,440,201.36,383.58Zm113.35-5.68c.41,1.56.78,3,1.16,4.4,2.88,10.75,11.07,17.68,22.23,18.35a137.12,137.12,0,0,0,16.47,0c13.33-.79,22.79-10.72,23.24-24.1.09-2.82.13-5.66,0-8.49-.48-9.29-6.4-15-15.75-15.12-9.16-.1-18.33.29-27.47-.12-9.86-.43-17,2.66-19.57,13H300.36c-2-7.52-6.36-12.62-14.51-12.81-11.31-.25-22.65-.23-34,0-7.93.17-13.61,6-14.07,14a103.12,103.12,0,0,0,0,11,23.13,23.13,0,0,0,19,22c4.53.83,9.27.71,13.92.73,18.1.07,25.15-5.31,30-22.85Z" transform="translate(-128.58 -260.28)"/><path class="cls-1" d="M314.71,377.9H300.78c-4.87,17.54-11.92,22.92-30,22.85-4.65,0-9.39.1-13.92-.73a23.13,23.13,0,0,1-19-22,103.12,103.12,0,0,1,0-11c.46-8,6.14-13.85,14.07-14,11.31-.23,22.65-.25,34,0,8.15.19,12.5,5.29,14.51,12.81H315c2.58-10.34,9.71-13.43,19.57-13,9.14.41,18.31,0,27.47.12,9.35.1,15.27,5.83,15.75,15.12.15,2.83.11,5.67,0,8.49-.45,13.38-9.91,23.31-23.24,24.1a137.12,137.12,0,0,1-16.47,0c-11.16-.67-19.35-7.6-22.23-18.35C315.49,380.88,315.12,379.46,314.71,377.9Z" transform="translate(-128.58 -260.28)"/></svg>