<svg id="Vrstva_1" data-name="Vrstva 1" xmlns="http://www.w3.org/2000/svg" viewBox="0 0 2500 2500"><defs><style>.cls-1{fill:#fff;}.cls-2{fill:#d1d5db;}</style></defs><title>csob</title><path class="cls-1" d="M0,0H2500V2500H0Z"/><path class="cls-2" d="M1259.42,1141.55c194.39,0,352-157.74,352-352.26S1453.82,437,1259.42,437s-352,157.74-352,352.26S1065,1141.55,1259.42,1141.55Z"/><path class="cls-2" d="M1519,1074.31c-67.08,72.74-185.35,145.51-337.08,145.51-117.74,0-219.11-45.77-283.57-96.68C514,1163.48,228.24,1220.7,228.24,1220.7v155.7l2036.79-.2.23-321.08S1917.7,1053,1519,1074.31Z"/><path class="cls-2" d="M653.35,2042c-36.26,10.47-90,21-139.28,21-168.3,0-303.22-91.32-303.22-277.66,0-175.14,140.73-262.74,303.22-262.74,53.68,0,85.6,6.75,137.83,16.49v137.7c-31.92-10.5-64.58-19.48-97.2-19.48-82.7,0-145.09,45.66-145.09,131,0,89.77,58,135.41,138.56,135.41,35.53,0,69.64-7.47,105.18-20.22Zm459.9-367.51a446.21,446.21,0,0,0-150.18-26.18c-30.45,0-83.42.8-83.42,34.43,0,68.14,266.24,3.74,266.24,205.06,0,140-134.24,175.17-246.67,175.17-74.73,0-136.38-7.52-208.92-24.72V1902.81c52.23,22.42,116.08,34.39,174.11,34.39,45.69,0,87-9.7,87-35.9,0-70.35-266.22-6.74-266.22-209.59,0-143.68,145.08-169.14,260.41-169.14,54.42,0,114.61,6.75,167.59,18v133.93ZM1456.34,2063c-177,0-280.75-92.08-280.75-270.18,0-175.15,103.72-270.21,280.75-270.21s282.88,95.06,282.88,270.21C1739.22,1970.9,1633.33,2063,1456.34,2063Zm0-125.78c76.88,0,79.06-88.33,79.73-144.42-.68-48.66-5.74-144.47-79.73-144.47-71.82,0-77.62,95.81-77.62,144.47C1378.72,1848.88,1386.68,1937.2,1456.34,1937.2Zm330.83-405.63h318.42c87.8,0,174.13,29.21,174.13,128.74,0,71.87-37,110-104.47,128v1.49c70.4,9.7,113.89,66.6,113.89,119,0,131.72-103,145.17-208.21,145.17H1787.17V1531.57ZM1970,1946.23h50.76c35.54,0,74-13.48,74-53.93,0-44.91-36.28-53.12-72.53-53.12H1970v107Zm0-214.84h48.56c34.12,0,71.1-10.47,71.1-50.13,0-38.91-31.92-50.87-66.74-50.87H1970Z"/><path class="cls-2" d="M311.62,1484.64s61.09,52.51,153.44,52.89c87.27.3,152-43.06,185.85-79.55l-14.77-11.27s-44.26,48.87-128.37,48c-89.2-.9-139.93-61.68-139.93-61.68l-56.22,51.61Z"/></svg>