<svg id="Layer_1" data-name="Layer 1" xmlns="http://www.w3.org/2000/svg" xmlns:xlink="http://www.w3.org/1999/xlink" viewBox="0 0 460 460"><defs><style>.cls-1{fill:url(#Nepojmenovaný_přechod_158);}.cls-2{fill:url(#Nepojmenovaný_přechod_157);}.cls-3{fill:url(#Nepojmenovaný_přechod_156);}.cls-4{fill:url(#Nepojmenovaný_přechod_155);}.cls-5{fill:url(#Nepojmenovaný_přechod_154);}.cls-6{fill:url(#Nepojmenovaný_přechod_153);}.cls-7{fill:url(#Nepojmenovaný_přechod_152);}.cls-8{fill:url(#Nepojmenovaný_přechod_151);}</style><radialGradient id="Nepojmenovaný_přechod_158" cx="200" cy="16824.76" r="157.32" gradientTransform="translate(-20 -16694)" gradientUnits="userSpaceOnUse"><stop offset="0" stop-color="#e3e6e9"/><stop offset="1" stop-color="#dfe2e6"/></radialGradient><radialGradient id="Nepojmenovaný_přechod_157" cx="200" cy="16872.26" r="140.24" gradientTransform="translate(-20 -16694)" gradientUnits="userSpaceOnUse"><stop offset="0.24" stop-color="#e5e7eb"/><stop offset="1" stop-color="#d8dbe0"/></radialGradient><radialGradient id="Nepojmenovaný_přechod_156" cx="150.74" cy="16974" r="157.31" gradientTransform="translate(-20 -16694)" gradientUnits="userSpaceOnUse"><stop offset="0" stop-color="#e3e5e9"/><stop offset="1" stop-color="#dadde2"/></radialGradient><radialGradient id="Nepojmenovaný_přechod_155" cx="198.24" cy="16974" r="140.23" gradientTransform="translate(-20 -16694)" gradientUnits="userSpaceOnUse"><stop offset="0.4" stop-color="#dfe2e6"/><stop offset="1" stop-color="#d1d5db"/></radialGradient><radialGradient id="Nepojmenovaný_přechod_154" cx="300" cy="17023.26" r="157.31" gradientTransform="translate(-20 -16694)" gradientUnits="userSpaceOnUse"><stop offset="0" stop-color="#f8f9fa"/><stop offset="1" stop-color="#eeeff1"/></radialGradient><radialGradient id="Nepojmenovaný_přechod_153" cx="300" cy="16975.76" r="140.23" gradientTransform="translate(-20 -16694)" gradientUnits="userSpaceOnUse"><stop offset="0.22" stop-color="#f9fafa"/><stop offset="1" stop-color="#e4e7ea"/></radialGradient><linearGradient id="Nepojmenovaný_přechod_152" x1="218.52" y1="16874" x2="480" y2="16874" gradientTransform="translate(-20 -16694)" gradientUnits="userSpaceOnUse"><stop offset="0" stop-color="#e6e8ec"/><stop offset="1" stop-color="#dde0e4"/></linearGradient><radialGradient id="Nepojmenovaný_přechod_151" cx="301.76" cy="16874" r="140.23" gradientTransform="translate(-20 -16694)" gradientUnits="userSpaceOnUse"><stop offset="0.21" stop-color="#eaecee"/><stop offset="1" stop-color="#d8dce1"/></radialGradient></defs><title>sharex</title><path class="cls-1" d="M360,156.62c-1.55-66.46-48.68-123-114.74-145.79A199.35,199.35,0,0,0,180,0C80.59,0,0,71.63,0,160a144,144,0,0,0,10.83,54.79C33.67,148.73,90.16,101.6,156.62,100H160c38.52,0,73.87,15.32,101.48,40.84A172,172,0,0,1,279.22,160c21.92,27.53,36.42,62.7,39.95,101.53C344.68,233.87,360,198.52,360,160Z" transform="translate(0 0)"/><path class="cls-2" d="M319.16,256.48c-3.53-38.83-18-74-40-101.53a171.43,171.43,0,0,0-17.73-19.11C233.87,110.32,198.52,95,160,95h-3.38c-66.46,1.55-123,48.68-145.79,114.74A144.1,144.1,0,0,1,0,157.67V160a144,144,0,0,0,10.83,54.79C33.67,148.73,90.16,101.6,156.62,100H160c38.52,0,73.87,15.32,101.48,40.84A172,172,0,0,1,279.22,160c21.92,27.53,36.42,62.7,39.95,101.53C344.68,233.87,360,198.52,360,160v-2.33C359.28,195.16,344.09,229.51,319.16,256.48Z" transform="translate(0 0)"/><path class="cls-3" d="M100,303.38V300c0-38.52,15.32-73.87,40.84-101.48,29.33-31.74,72.13-53.27,120.64-57.68C233.87,115.32,198.52,100,160,100h-3.38c-66.46,1.55-123,48.68-145.79,114.74A199.35,199.35,0,0,0,0,280c0,99.41,71.63,180,160,180a144,144,0,0,0,54.79-10.83C148.73,426.33,101.6,369.84,100,303.38Z" transform="translate(0 0)"/><path class="cls-4" d="M100,303.38V300c0-38.52,15.32-73.87,40.84-101.48,29.33-31.74,72.13-53.27,120.64-57.68C233.87,115.32,198.52,100,160,100h-2.33c37.49.69,71.84,15.88,98.81,40.8-48.51,4.41-91.31,25.94-120.64,57.68C110.32,226.13,95,261.48,95,300v3.38c1.55,66.46,48.68,123,114.74,145.79A144.1,144.1,0,0,1,157.67,460H160a144,144,0,0,0,54.79-10.83C148.73,426.33,101.6,369.84,100,303.38Z" transform="translate(0 0)"/><path class="cls-5" d="M449.17,245.21C426.33,311.27,369.84,358.4,303.38,360H300c-38.52,0-73.87-15.32-101.48-40.84-31.74-29.33-53.27-72.13-57.68-120.64C115.32,226.13,100,261.48,100,300v3.38c1.55,66.46,48.68,123,114.74,145.79A199.35,199.35,0,0,0,280,460c99.41,0,180-71.63,180-160A144,144,0,0,0,449.17,245.21Z" transform="translate(0 0)"/><path class="cls-6" d="M140.84,203.52c4.41,48.51,25.94,91.31,57.68,120.64C226.13,349.68,261.48,365,300,365h3.38c66.46-1.55,123-48.68,145.79-114.74A144.1,144.1,0,0,1,460,302.33V300a144,144,0,0,0-10.83-54.79C426.33,311.27,369.84,358.4,303.38,360H300c-38.52,0-73.87-15.32-101.48-40.84-31.74-29.33-53.27-72.13-57.68-120.64C115.32,226.13,100,261.48,100,300v2.33C100.72,264.84,115.91,230.49,140.84,203.52Z" transform="translate(0 0)"/><path class="cls-7" d="M300,0a144,144,0,0,0-54.79,10.83C311.27,33.67,358.4,90.16,360,156.62V160c0,38.52-15.32,73.87-40.84,101.48-29.33,31.74-72.13,53.27-120.64,57.68C226.13,344.68,261.48,360,300,360h3.38c66.46-1.55,123-48.68,145.79-114.74A199.35,199.35,0,0,0,460,180C460,80.59,388.37,0,300,0Z" transform="translate(0 0)"/><path class="cls-8" d="M203.52,319.16c48.51-4.41,91.31-25.94,120.64-57.68C349.68,233.87,365,198.52,365,160v-3.38c-1.55-66.46-48.68-123-114.74-145.79A144.1,144.1,0,0,1,302.33,0H300a144,144,0,0,0-54.79,10.83C311.27,33.67,358.4,90.16,360,156.62V160c0,38.52-15.32,73.87-40.84,101.48-29.33,31.74-72.13,53.27-120.64,57.68C226.13,344.68,261.48,360,300,360h2.33C264.84,359.28,230.49,344.09,203.52,319.16Z" transform="translate(0 0)"/></svg>